STARTFONT 2.1
COMMENT Created by fdbbdf
FONT times12b
SIZE 12 78 78
FONTBOUNDINGBOX 16 15 -1 -5
STARTPROPERTIES 4
Ownership "  Copyright (c) 1984 Adobe Systems, Inc.  /adobe/fonttools/bitmaps/stdfontvec.ps TB14.bits  TOTAL BITMAP BYTES 1495  GUIDELINES -3 0 7 10 DONE  WIDTHERR -49 -3  "
FONT_ASCENT 10
FONT_DESCENT 5
DEFAULT_CHAR 32
ENDPROPERTIES
CHARS 95
STARTCHAR sp
ENCODING -1 32
SWIDTH 0 0
DWIDTH 4 0
BBX 0 0 0 0
BITMAP
ENDCHAR
STARTCHAR !
ENCODING -1 33
SWIDTH 0 0
DWIDTH 4 0
BBX 2 10 1 -1
BITMAP
c000
c000
c000
c000
c000
c000
c000
0000
c000
c000
ENDCHAR
STARTCHAR "
ENCODING -1 34
SWIDTH 0 0
DWIDTH 7 0
BBX 5 4 1 5
BITMAP
d800
d800
d800
4800
ENDCHAR
STARTCHAR #
ENCODING -1 35
SWIDTH 0 0
DWIDTH 7 0
BBX 7 10 -1 -1
BITMAP
1400
1400
1400
7e00
2800
2800
fc00
5000
5000
5000
ENDCHAR
STARTCHAR $
ENCODING -1 36
SWIDTH 0 0
DWIDTH 7 0
BBX 6 12 0 -2
BITMAP
1000
7800
d400
d400
f000
7800
3c00
1c00
9400
d400
7800
1000
ENDCHAR
STARTCHAR %
ENCODING -1 37
SWIDTH 0 0
DWIDTH 14 0
BBX 13 10 0 -1
BITMAP
38c0
67c0
c580
c900
7300
0670
04c8
0d88
1990
18e0
ENDCHAR
STARTCHAR &
ENCODING -1 38
SWIDTH 0 0
DWIDTH 12 0
BBX 9 10 1 -1
BITMAP
3c00
6600
6600
3c00
3b80
7900
dd00
ce00
ef80
7b00
ENDCHAR
STARTCHAR '
ENCODING -1 39
SWIDTH 0 0
DWIDTH 4 0
BBX 2 4 1 5
BITMAP
c000
c000
4000
8000
ENDCHAR
STARTCHAR (
ENCODING -1 40
SWIDTH 0 0
DWIDTH 5 0
BBX 3 13 1 -4
BITMAP
2000
6000
4000
c000
c000
c000
c000
c000
c000
c000
4000
6000
2000
ENDCHAR
STARTCHAR )
ENCODING -1 41
SWIDTH 0 0
DWIDTH 5 0
BBX 3 13 1 -4
BITMAP
8000
c000
4000
6000
6000
6000
6000
6000
6000
6000
4000
c000
8000
ENDCHAR
STARTCHAR *
ENCODING -1 42
SWIDTH 0 0
DWIDTH 7 0
BBX 5 6 1 3
BITMAP
2000
a800
7000
7000
a800
2000
ENDCHAR
STARTCHAR +
ENCODING -1 43
SWIDTH 0 0
DWIDTH 9 0
BBX 7 7 1 0
BITMAP
1000
1000
1000
fe00
1000
1000
1000
ENDCHAR
STARTCHAR ,
ENCODING -1 44
SWIDTH 0 0
DWIDTH 3 0
BBX 2 4 1 -3
BITMAP
c000
c000
4000
8000
ENDCHAR
STARTCHAR -
ENCODING -1 45
SWIDTH 0 0
DWIDTH 6 0
BBX 4 1 1 3
BITMAP
f000
ENDCHAR
STARTCHAR .
ENCODING -1 46
SWIDTH 0 0
DWIDTH 4 0
BBX 2 2 1 -1
BITMAP
c000
c000
ENDCHAR
STARTCHAR /
ENCODING -1 47
SWIDTH 0 0
DWIDTH 4 0
BBX 4 10 0 -1
BITMAP
1000
1000
3000
2000
6000
4000
4000
c000
8000
8000
ENDCHAR
STARTCHAR 0
ENCODING -1 48
SWIDTH 0 0
DWIDTH 8 0
BBX 6 10 0 -1
BITMAP
3000
7800
cc00
cc00
cc00
cc00
cc00
cc00
7800
3000
ENDCHAR
STARTCHAR 1
ENCODING -1 49
SWIDTH 0 0
DWIDTH 7 0
BBX 6 10 0 -1
BITMAP
3000
7000
b000
3000
3000
3000
3000
3000
3000
fc00
ENDCHAR
STARTCHAR 2
ENCODING -1 50
SWIDTH 0 0
DWIDTH 7 0
BBX 6 10 0 -1
BITMAP
3800
7c00
8c00
0c00
0800
1000
2000
6400
fc00
fc00
ENDCHAR
STARTCHAR 3
ENCODING -1 51
SWIDTH 0 0
DWIDTH 7 0
BBX 6 10 0 -1
BITMAP
3800
7c00
8c00
0800
3800
0c00
0c00
cc00
dc00
7800
ENDCHAR
STARTCHAR 4
ENCODING -1 52
SWIDTH 0 0
DWIDTH 7 0
BBX 6 10 0 -1
BITMAP
1800
3800
3800
5800
5800
9800
fc00
fc00
1800
1800
ENDCHAR
STARTCHAR 5
ENCODING -1 53
SWIDTH 0 0
DWIDTH 7 0
BBX 6 10 0 -1
BITMAP
7c00
7c00
4000
f000
f800
0c00
0c00
cc00
dc00
7800
ENDCHAR
STARTCHAR 6
ENCODING -1 54
SWIDTH 0 0
DWIDTH 7 0
BBX 6 10 0 -1
BITMAP
0c00
3800
7000
6000
f800
cc00
cc00
cc00
cc00
7800
ENDCHAR
STARTCHAR 7
ENCODING -1 55
SWIDTH 0 0
DWIDTH 7 0
BBX 6 10 0 -1
BITMAP
fc00
fc00
8c00
0800
1800
1000
3000
2000
6000
6000
ENDCHAR
STARTCHAR 8
ENCODING -1 56
SWIDTH 0 0
DWIDTH 7 0
BBX 6 10 0 -1
BITMAP
7800
cc00
cc00
ec00
7800
7800
dc00
cc00
cc00
7800
ENDCHAR
STARTCHAR 9
ENCODING -1 57
SWIDTH 0 0
DWIDTH 7 0
BBX 6 10 0 -1
BITMAP
7800
cc00
cc00
cc00
cc00
7c00
0c00
1800
3800
e000
ENDCHAR
STARTCHAR :
ENCODING -1 58
SWIDTH 0 0
DWIDTH 5 0
BBX 2 7 2 -1
BITMAP
c000
c000
0000
0000
0000
c000
c000
ENDCHAR
STARTCHAR ;
ENCODING -1 59
SWIDTH 0 0
DWIDTH 5 0
BBX 2 9 2 -3
BITMAP
c000
c000
0000
0000
0000
c000
c000
4000
8000
ENDCHAR
STARTCHAR <
ENCODING -1 60
SWIDTH 0 0
DWIDTH 9 0
BBX 7 7 1 0
BITMAP
0600
1c00
7000
c000
7000
1c00
0600
ENDCHAR
STARTCHAR =
ENCODING -1 61
SWIDTH 0 0
DWIDTH 8 0
BBX 6 3 1 2
BITMAP
fc00
0000
fc00
ENDCHAR
STARTCHAR >
ENCODING -1 62
SWIDTH 0 0
DWIDTH 9 0
BBX 7 7 1 0
BITMAP
c000
7000
1c00
0600
1c00
7000
c000
ENDCHAR
STARTCHAR ?
ENCODING -1 63
SWIDTH 0 0
DWIDTH 7 0
BBX 5 10 1 -1
BITMAP
7000
d800
d800
1800
3000
6000
6000
0000
6000
6000
ENDCHAR
STARTCHAR @
ENCODING -1 64
SWIDTH 0 0
DWIDTH 14 0
BBX 12 12 1 -3
BITMAP
0f80
38e0
7060
6530
cf30
db30
db30
df60
cdc0
6000
7800
1f00
ENDCHAR
STARTCHAR A
ENCODING -1 65
SWIDTH 0 0
DWIDTH 11 0
BBX 10 10 0 -1
BITMAP
0c00
0c00
1e00
1600
1700
2300
3f00
4380
4180
e3c0
ENDCHAR
STARTCHAR B
ENCODING -1 66
SWIDTH 0 0
DWIDTH 10 0
BBX 8 10 1 -1
BITMAP
fe00
6700
6300
6300
7e00
6700
6300
6300
6300
fe00
ENDCHAR
STARTCHAR C
ENCODING -1 67
SWIDTH 0 0
DWIDTH 10 0
BBX 8 10 1 -1
BITMAP
3d00
6300
c100
c100
c000
c000
c000
c100
6300
3e00
ENDCHAR
STARTCHAR D
ENCODING -1 68
SWIDTH 0 0
DWIDTH 11 0
BBX 9 10 1 -1
BITMAP
fe00
6300
6180
6180
6180
6180
6180
6180
6300
fe00
ENDCHAR
STARTCHAR E
ENCODING -1 69
SWIDTH 0 0
DWIDTH 10 0
BBX 8 10 1 -1
BITMAP
ff00
6300
6100
6400
7c00
6400
6100
6100
6300
ff00
ENDCHAR
STARTCHAR F
ENCODING -1 70
SWIDTH 0 0
DWIDTH 10 0
BBX 8 10 1 -1
BITMAP
ff00
6300
6100
6400
7c00
6400
6000
6000
6000
f000
ENDCHAR
STARTCHAR G
ENCODING -1 71
SWIDTH 0 0
DWIDTH 11 0
BBX 9 10 1 -1
BITMAP
3d00
6300
c100
c100
c000
c780
c300
c300
6300
3f00
ENDCHAR
STARTCHAR H
ENCODING -1 72
SWIDTH 0 0
DWIDTH 12 0
BBX 10 10 1 -1
BITMAP
f3c0
6180
6180
6180
7f80
6180
6180
6180
6180
f3c0
ENDCHAR
STARTCHAR I
ENCODING -1 73
SWIDTH 0 0
DWIDTH 6 0
BBX 4 10 1 -1
BITMAP
f000
6000
6000
6000
6000
6000
6000
6000
6000
f000
ENDCHAR
STARTCHAR J
ENCODING -1 74
SWIDTH 0 0
DWIDTH 7 0
BBX 6 10 0 -1
BITMAP
3c00
1800
1800
1800
1800
1800
1800
d800
d800
7000
ENDCHAR
STARTCHAR K
ENCODING -1 75
SWIDTH 0 0
DWIDTH 12 0
BBX 10 10 1 -1
BITMAP
f7c0
6300
6200
6400
7800
7c00
6e00
6700
6380
f7c0
ENDCHAR
STARTCHAR L
ENCODING -1 76
SWIDTH 0 0
DWIDTH 9 0
BBX 8 10 0 -1
BITMAP
f000
6000
6000
6000
6000
6000
6100
6100
6300
ff00
ENDCHAR
STARTCHAR M
ENCODING -1 77
SWIDTH 0 0
DWIDTH 13 0
BBX 12 10 0 -1
BITMAP
f0f0
70e0
70e0
5960
5960
5a60
4e60
4e60
4460
e4f0
ENDCHAR
STARTCHAR N
ENCODING -1 78
SWIDTH 0 0
DWIDTH 10 0
BBX 10 10 0 -1
BITMAP
c1c0
6080
7080
7880
5c80
4e80
4780
4380
4180
e080
ENDCHAR
STARTCHAR O
ENCODING -1 79
SWIDTH 0 0
DWIDTH 11 0
BBX 9 10 1 -1
BITMAP
3e00
6300
c180
c180
c180
c180
c180
c180
6300
3e00
ENDCHAR
STARTCHAR P
ENCODING -1 80
SWIDTH 0 0
DWIDTH 9 0
BBX 8 10 0 -1
BITMAP
fe00
6700
6300
6300
6200
7c00
6000
6000
6000
f000
ENDCHAR
STARTCHAR Q
ENCODING -1 81
SWIDTH 0 0
DWIDTH 11 0
BBX 9 13 1 -4
BITMAP
3e00
6300
c180
c180
c180
c180
c180
c180
6300
3e00
0c00
0e00
0780
ENDCHAR
STARTCHAR R
ENCODING -1 82
SWIDTH 0 0
DWIDTH 12 0
BBX 10 10 1 -1
BITMAP
fe00
6700
6300
6300
6600
7c00
6e00
6700
6380
f1c0
ENDCHAR
STARTCHAR S
ENCODING -1 83
SWIDTH 0 0
DWIDTH 9 0
BBX 7 10 1 -1
BITMAP
7a00
c600
c200
e000
7800
1c00
0e00
8600
c600
bc00
ENDCHAR
STARTCHAR T
ENCODING -1 84
SWIDTH 0 0
DWIDTH 10 0
BBX 8 10 1 -1
BITMAP
ff00
db00
9900
1800
1800
1800
1800
1800
1800
3c00
ENDCHAR
STARTCHAR U
ENCODING -1 85
SWIDTH 0 0
DWIDTH 9 0
BBX 9 10 0 -1
BITMAP
f380
6100
6100
6100
6100
6100
6100
6100
7300
3e00
ENDCHAR
STARTCHAR V
ENCODING -1 86
SWIDTH 0 0
DWIDTH 10 0
BBX 10 10 0 -1
BITMAP
f1c0
6080
6080
3100
3100
3a00
1a00
1e00
0c00
0c00
ENDCHAR
STARTCHAR W
ENCODING -1 87
SWIDTH 0 0
DWIDTH 15 0
BBX 15 10 0 -1
BITMAP
f79e
630c
6308
3188
3190
3bd0
1ad0
1ce0
0c60
0c60
ENDCHAR
STARTCHAR X
ENCODING -1 88
SWIDTH 0 0
DWIDTH 12 0
BBX 11 10 0 -1
BITMAP
f1e0
7080
3900
1e00
0e00
0e00
0b00
1380
21c0
f1e0
ENDCHAR
STARTCHAR Y
ENCODING -1 89
SWIDTH 0 0
DWIDTH 10 0
BBX 10 10 0 -1
BITMAP
f9c0
7080
3100
3900
1a00
1e00
0c00
0c00
0c00
1e00
ENDCHAR
STARTCHAR Z
ENCODING -1 90
SWIDTH 0 0
DWIDTH 9 0
BBX 8 10 0 -1
BITMAP
ff00
c700
8600
0c00
1800
1800
3100
6100
e300
ff00
ENDCHAR
STARTCHAR [
ENCODING -1 91
SWIDTH 0 0
DWIDTH 5 0
BBX 4 13 0 -4
BITMAP
f000
c000
c000
c000
c000
c000
c000
c000
c000
c000
c000
c000
f000
ENDCHAR
STARTCHAR \
ENCODING -1 92
SWIDTH 0 0
DWIDTH 4 0
BBX 4 10 0 -1
BITMAP
8000
8000
c000
4000
6000
2000
2000
3000
1000
1000
ENDCHAR
STARTCHAR ]
ENCODING -1 93
SWIDTH 0 0
DWIDTH 5 0
BBX 4 13 0 -4
BITMAP
f000
3000
3000
3000
3000
3000
3000
3000
3000
3000
3000
3000
f000
ENDCHAR
STARTCHAR ^
ENCODING -1 94
SWIDTH 0 0
DWIDTH 8 0
BBX 5 5 1 4
BITMAP
2000
7000
5000
d800
8800
ENDCHAR
STARTCHAR _
ENCODING -1 95
SWIDTH 0 0
DWIDTH 7 0
BBX 7 1 0 -5
BITMAP
fe00
ENDCHAR
STARTCHAR `
ENCODING -1 96
SWIDTH 0 0
DWIDTH 4 0
BBX 2 4 1 5
BITMAP
4000
8000
c000
c000
ENDCHAR
STARTCHAR a
ENCODING -1 97
SWIDTH 0 0
DWIDTH 8 0
BBX 7 7 0 -1
BITMAP
7800
cc00
0c00
7c00
cc00
cc00
7600
ENDCHAR
STARTCHAR b
ENCODING -1 98
SWIDTH 0 0
DWIDTH 8 0
BBX 7 10 0 -1
BITMAP
e000
6000
6000
7c00
6600
6600
6600
6600
6600
5c00
ENDCHAR
STARTCHAR c
ENCODING -1 99
SWIDTH 0 0
DWIDTH 7 0
BBX 6 7 0 -1
BITMAP
7800
cc00
cc00
c000
c000
c400
7800
ENDCHAR
STARTCHAR d
ENCODING -1 100
SWIDTH 0 0
DWIDTH 8 0
BBX 7 10 0 -1
BITMAP
1c00
0c00
0c00
7c00
cc00
cc00
cc00
cc00
cc00
7600
ENDCHAR
STARTCHAR e
ENCODING -1 101
SWIDTH 0 0
DWIDTH 7 0
BBX 6 7 0 -1
BITMAP
7800
cc00
cc00
fc00
c000
c400
7800
ENDCHAR
STARTCHAR f
ENCODING -1 102
SWIDTH 0 0
DWIDTH 6 0
BBX 5 10 0 -1
BITMAP
3800
6800
6000
f800
6000
6000
6000
6000
6000
f000
ENDCHAR
STARTCHAR g
ENCODING -1 103
SWIDTH 0 0
DWIDTH 8 0
BBX 7 10 0 -4
BITMAP
7e00
cc00
cc00
cc00
7800
c000
7c00
c600
c600
7c00
ENDCHAR
STARTCHAR h
ENCODING -1 104
SWIDTH 0 0
DWIDTH 9 0
BBX 8 10 0 -1
BITMAP
e000
6000
6000
6c00
7600
6600
6600
6600
6600
f700
ENDCHAR
STARTCHAR i
ENCODING -1 105
SWIDTH 0 0
DWIDTH 5 0
BBX 4 10 0 -1
BITMAP
6000
6000
0000
e000
6000
6000
6000
6000
6000
f000
ENDCHAR
STARTCHAR j
ENCODING -1 106
SWIDTH 0 0
DWIDTH 4 0
BBX 4 13 -1 -4
BITMAP
3000
3000
0000
7000
3000
3000
3000
3000
3000
3000
3000
b000
e000
ENDCHAR
STARTCHAR k
ENCODING -1 107
SWIDTH 0 0
DWIDTH 9 0
BBX 8 10 0 -1
BITMAP
e000
6000
6000
6e00
6400
6800
7800
6c00
6600
e700
ENDCHAR
STARTCHAR l
ENCODING -1 108
SWIDTH 0 0
DWIDTH 5 0
BBX 4 10 0 -1
BITMAP
e000
6000
6000
6000
6000
6000
6000
6000
6000
f000
ENDCHAR
STARTCHAR m
ENCODING -1 109
SWIDTH 0 0
DWIDTH 13 0
BBX 12 7 0 -1
BITMAP
ecc0
7760
6660
6660
6660
6660
f770
ENDCHAR
STARTCHAR n
ENCODING -1 110
SWIDTH 0 0
DWIDTH 9 0
BBX 8 7 0 -1
BITMAP
ec00
7600
6600
6600
6600
6600
f700
ENDCHAR
STARTCHAR o
ENCODING -1 111
SWIDTH 0 0
DWIDTH 7 0
BBX 6 7 0 -1
BITMAP
7800
cc00
cc00
cc00
cc00
cc00
7800
ENDCHAR
STARTCHAR p
ENCODING -1 112
SWIDTH 0 0
DWIDTH 8 0
BBX 7 10 0 -4
BITMAP
ec00
7600
6600
6600
6600
6600
7c00
6000
6000
f000
ENDCHAR
STARTCHAR q
ENCODING -1 113
SWIDTH 0 0
DWIDTH 7 0
BBX 7 10 0 -4
BITMAP
6c00
dc00
cc00
cc00
cc00
cc00
7c00
0c00
0c00
1e00
ENDCHAR
STARTCHAR r
ENCODING -1 114
SWIDTH 0 0
DWIDTH 7 0
BBX 6 7 0 -1
BITMAP
dc00
6c00
6000
6000
6000
6000
f000
ENDCHAR
STARTCHAR s
ENCODING -1 115
SWIDTH 0 0
DWIDTH 6 0
BBX 5 7 0 -1
BITMAP
7800
c800
e000
7000
3800
9800
f000
ENDCHAR
STARTCHAR t
ENCODING -1 116
SWIDTH 0 0
DWIDTH 6 0
BBX 5 9 0 -1
BITMAP
2000
6000
f800
6000
6000
6000
6000
6800
3000
ENDCHAR
STARTCHAR u
ENCODING -1 117
SWIDTH 0 0
DWIDTH 9 0
BBX 8 7 0 -1
BITMAP
ee00
6600
6600
6600
6600
6600
3b00
ENDCHAR
STARTCHAR v
ENCODING -1 118
SWIDTH 0 0
DWIDTH 8 0
BBX 8 7 0 -1
BITMAP
f700
6200
7200
3400
3c00
1800
1800
ENDCHAR
STARTCHAR w
ENCODING -1 119
SWIDTH 0 0
DWIDTH 11 0
BBX 10 7 0 -1
BITMAP
eec0
6480
7680
3780
3f00
1b00
1200
ENDCHAR
STARTCHAR x
ENCODING -1 120
SWIDTH 0 0
DWIDTH 8 0
BBX 7 7 0 -1
BITMAP
ee00
6c00
3800
3800
3800
6c00
ee00
ENDCHAR
STARTCHAR y
ENCODING -1 121
SWIDTH 0 0
DWIDTH 8 0
BBX 8 10 -1 -4
BITMAP
f700
6200
3200
3400
1c00
1c00
0800
0800
3800
3000
ENDCHAR
STARTCHAR z
ENCODING -1 122
SWIDTH 0 0
DWIDTH 7 0
BBX 6 7 0 -1
BITMAP
fc00
9c00
1800
3000
6400
e400
fc00
ENDCHAR
STARTCHAR {
ENCODING -1 123
SWIDTH 0 0
DWIDTH 7 0
BBX 5 13 1 -4
BITMAP
1800
3000
3000
3000
3000
6000
c000
6000
3000
3000
3000
3000
1800
ENDCHAR
STARTCHAR |
ENCODING -1 124
SWIDTH 0 0
DWIDTH 3 0
BBX 1 14 1 -4
BITMAP
8000
8000
8000
8000
8000
8000
8000
8000
8000
8000
8000
8000
8000
8000
ENDCHAR
STARTCHAR }
ENCODING -1 125
SWIDTH 0 0
DWIDTH 7 0
BBX 5 13 1 -4
BITMAP
c000
6000
6000
6000
6000
3000
1800
3000
6000
6000
6000
6000
c000
ENDCHAR
STARTCHAR ~
ENCODING -1 126
SWIDTH 0 0
DWIDTH 8 0
BBX 7 4 0 2
BITMAP
6000
f200
9e00
0c00
ENDCHAR
ENDFONT
